G04 MADE WITH FRITZING*
G04 WWW.FRITZING.ORG*
G04 DOUBLE SIDED*
G04 HOLES PLATED*
G04 CONTOUR ON CENTER OF CONTOUR VECTOR*
%ASAXBY*%
%FSLAX23Y23*%
%MOIN*%
%OFA0B0*%
%SFA1.0B1.0*%
%ADD10C,0.039370*%
%ADD11C,0.079391*%
%ADD12C,0.082000*%
%ADD13C,0.074000*%
%ADD14C,0.078000*%
%ADD15C,0.075000*%
%ADD16C,0.080000*%
%ADD17R,0.082000X0.082000*%
%ADD18R,0.080000X0.080000*%
%ADD19C,0.024000*%
%ADD20C,0.032000*%
%ADD21R,0.001000X0.001000*%
%LNCOPPER1*%
G90*
G70*
G54D10*
X422Y647D03*
X722Y647D03*
X722Y2147D03*
X922Y2147D03*
X922Y1947D03*
X1322Y2147D03*
X1122Y1947D03*
X1122Y1747D03*
X1422Y1947D03*
X2022Y2147D03*
X1622Y2047D03*
X1722Y1847D03*
X1822Y1947D03*
X1822Y1247D03*
X1822Y647D03*
X1822Y1047D03*
X1622Y1147D03*
X1622Y847D03*
X822Y447D03*
X622Y247D03*
X922Y447D03*
X722Y247D03*
X1122Y2047D03*
X1122Y2247D03*
G54D11*
X1122Y1447D03*
X1022Y1447D03*
X922Y1447D03*
X822Y1447D03*
X722Y1447D03*
X622Y1447D03*
X522Y1447D03*
X422Y1447D03*
X422Y547D03*
X522Y547D03*
X622Y547D03*
X722Y547D03*
X822Y547D03*
X922Y547D03*
X1022Y547D03*
X1122Y547D03*
G54D12*
X1122Y347D03*
X1222Y347D03*
X1322Y347D03*
G54D13*
X1822Y2047D03*
X1929Y2047D03*
X2036Y2047D03*
X1822Y2047D03*
X1929Y2047D03*
X2036Y2047D03*
G54D14*
X722Y2047D03*
X622Y2047D03*
X522Y2047D03*
X422Y2047D03*
X322Y2047D03*
X222Y2047D03*
X822Y2047D03*
X922Y2047D03*
X1022Y2047D03*
X1322Y2047D03*
X1422Y2047D03*
X1522Y2047D03*
X422Y147D03*
X522Y147D03*
X622Y147D03*
X722Y147D03*
G54D15*
X1122Y1847D03*
X1522Y1847D03*
X1422Y147D03*
X1022Y147D03*
X822Y1047D03*
X422Y1047D03*
G54D16*
X1722Y1647D03*
X1722Y1447D03*
X1722Y1247D03*
X1722Y1047D03*
X1722Y847D03*
X1722Y647D03*
G54D17*
X1122Y347D03*
G54D18*
X1722Y1647D03*
X1722Y1247D03*
X1722Y847D03*
G54D19*
X422Y666D02*
X422Y1019D01*
D02*
X709Y2161D02*
X623Y2247D01*
D02*
X1403Y1947D02*
X1322Y1947D01*
D02*
X1122Y1966D02*
X1122Y2028D01*
D02*
X1322Y2166D02*
X1322Y2247D01*
D02*
X2009Y2161D02*
X1922Y2247D01*
G54D20*
D02*
X1622Y1947D02*
X1705Y1865D01*
D02*
X1622Y2023D02*
X1622Y1947D01*
G54D19*
D02*
X1922Y747D02*
X1922Y947D01*
D02*
X1922Y947D02*
X1836Y1034D01*
D02*
X1836Y661D02*
X1922Y747D01*
G54D20*
D02*
X1922Y1847D02*
X1840Y1930D01*
D02*
X1922Y1347D02*
X1922Y1847D01*
D02*
X1840Y1265D02*
X1922Y1347D01*
G54D19*
D02*
X636Y261D02*
X809Y434D01*
D02*
X909Y434D02*
X736Y261D01*
D02*
X1322Y1347D02*
X1222Y1247D01*
D02*
X1222Y1247D02*
X864Y1241D01*
D02*
X864Y1241D02*
X823Y1146D01*
D02*
X823Y1146D02*
X822Y1076D01*
D02*
X922Y1747D02*
X1322Y1347D01*
D02*
X922Y1928D02*
X922Y1747D01*
D02*
X941Y2147D02*
X1121Y2148D01*
D02*
X1121Y2148D02*
X1322Y1947D01*
D02*
X1522Y1347D02*
X1136Y1734D01*
D02*
X1523Y948D02*
X1522Y1347D01*
D02*
X1609Y861D02*
X1523Y948D01*
D02*
X1322Y2247D02*
X1141Y2247D01*
D02*
X1103Y2247D02*
X623Y2247D01*
D02*
X823Y748D02*
X822Y1019D01*
D02*
X736Y661D02*
X823Y748D01*
D02*
X122Y2048D02*
X123Y1147D01*
D02*
X322Y2247D02*
X122Y2048D01*
D02*
X623Y2247D02*
X322Y2247D01*
D02*
X221Y1046D02*
X394Y1047D01*
D02*
X123Y1147D02*
X221Y1046D01*
D02*
X1622Y1347D02*
X1622Y1166D01*
D02*
X1622Y1747D02*
X1622Y1347D01*
D02*
X1922Y2247D02*
X1322Y2247D01*
D02*
X1441Y1947D02*
X1523Y1947D01*
D02*
X1621Y1867D02*
X1622Y1747D01*
D02*
X1523Y1947D02*
X1621Y1867D01*
G54D21*
X1806Y428D02*
X1814Y428D01*
X1805Y427D02*
X1815Y427D01*
X1804Y426D02*
X1816Y426D01*
X1804Y425D02*
X1816Y425D01*
X1593Y424D02*
X1635Y424D01*
X1804Y424D02*
X1816Y424D01*
X1593Y423D02*
X1636Y423D01*
X1804Y423D02*
X1816Y423D01*
X1593Y422D02*
X1637Y422D01*
X1804Y422D02*
X1816Y422D01*
X1593Y421D02*
X1637Y421D01*
X1804Y421D02*
X1816Y421D01*
X1593Y420D02*
X1637Y420D01*
X1804Y420D02*
X1816Y420D01*
X1593Y419D02*
X1637Y419D01*
X1804Y419D02*
X1816Y419D01*
X1593Y418D02*
X1637Y418D01*
X1804Y418D02*
X1816Y418D01*
X1593Y417D02*
X1636Y417D01*
X1805Y417D02*
X1815Y417D01*
X1593Y416D02*
X1634Y416D01*
X1807Y416D02*
X1813Y416D01*
X1593Y415D02*
X1601Y415D01*
X1593Y414D02*
X1601Y414D01*
X1593Y413D02*
X1601Y413D01*
X1593Y412D02*
X1601Y412D01*
X1593Y411D02*
X1601Y411D01*
X1593Y410D02*
X1601Y410D01*
X1593Y409D02*
X1601Y409D01*
X1593Y408D02*
X1601Y408D01*
X1593Y407D02*
X1601Y407D01*
X1593Y406D02*
X1601Y406D01*
X1593Y405D02*
X1601Y405D01*
X1661Y405D02*
X1665Y405D01*
X1680Y405D02*
X1692Y405D01*
X1727Y405D02*
X1730Y405D01*
X1763Y405D02*
X1766Y405D01*
X1797Y405D02*
X1814Y405D01*
X1858Y405D02*
X1862Y405D01*
X1876Y405D02*
X1890Y405D01*
X1934Y405D02*
X1953Y405D01*
X1593Y404D02*
X1601Y404D01*
X1660Y404D02*
X1666Y404D01*
X1678Y404D02*
X1695Y404D01*
X1726Y404D02*
X1731Y404D01*
X1762Y404D02*
X1767Y404D01*
X1796Y404D02*
X1815Y404D01*
X1857Y404D02*
X1863Y404D01*
X1875Y404D02*
X1893Y404D01*
X1932Y404D02*
X1955Y404D01*
X1593Y403D02*
X1601Y403D01*
X1659Y403D02*
X1666Y403D01*
X1676Y403D02*
X1696Y403D01*
X1725Y403D02*
X1732Y403D01*
X1761Y403D02*
X1768Y403D01*
X1795Y403D02*
X1816Y403D01*
X1856Y403D02*
X1863Y403D01*
X1873Y403D02*
X1894Y403D01*
X1930Y403D02*
X1957Y403D01*
X1593Y402D02*
X1601Y402D01*
X1659Y402D02*
X1667Y402D01*
X1674Y402D02*
X1697Y402D01*
X1725Y402D02*
X1732Y402D01*
X1761Y402D02*
X1768Y402D01*
X1795Y402D02*
X1816Y402D01*
X1856Y402D02*
X1864Y402D01*
X1872Y402D02*
X1896Y402D01*
X1929Y402D02*
X1958Y402D01*
X1593Y401D02*
X1601Y401D01*
X1659Y401D02*
X1667Y401D01*
X1673Y401D02*
X1698Y401D01*
X1724Y401D02*
X1733Y401D01*
X1760Y401D02*
X1769Y401D01*
X1795Y401D02*
X1816Y401D01*
X1856Y401D02*
X1864Y401D01*
X1871Y401D02*
X1896Y401D01*
X1928Y401D02*
X1959Y401D01*
X1593Y400D02*
X1601Y400D01*
X1659Y400D02*
X1667Y400D01*
X1671Y400D02*
X1699Y400D01*
X1724Y400D02*
X1733Y400D01*
X1760Y400D02*
X1769Y400D01*
X1795Y400D02*
X1816Y400D01*
X1856Y400D02*
X1864Y400D01*
X1870Y400D02*
X1897Y400D01*
X1927Y400D02*
X1960Y400D01*
X1593Y399D02*
X1601Y399D01*
X1659Y399D02*
X1667Y399D01*
X1670Y399D02*
X1700Y399D01*
X1724Y399D02*
X1733Y399D01*
X1760Y399D02*
X1769Y399D01*
X1795Y399D02*
X1816Y399D01*
X1856Y399D02*
X1864Y399D01*
X1869Y399D02*
X1898Y399D01*
X1926Y399D02*
X1961Y399D01*
X1593Y398D02*
X1601Y398D01*
X1659Y398D02*
X1700Y398D01*
X1724Y398D02*
X1733Y398D01*
X1760Y398D02*
X1769Y398D01*
X1796Y398D02*
X1816Y398D01*
X1856Y398D02*
X1864Y398D01*
X1868Y398D02*
X1899Y398D01*
X1925Y398D02*
X1962Y398D01*
X1593Y397D02*
X1601Y397D01*
X1659Y397D02*
X1701Y397D01*
X1724Y397D02*
X1733Y397D01*
X1760Y397D02*
X1769Y397D01*
X1797Y397D02*
X1816Y397D01*
X1856Y397D02*
X1864Y397D01*
X1866Y397D02*
X1899Y397D01*
X1924Y397D02*
X1963Y397D01*
X1593Y396D02*
X1601Y396D01*
X1659Y396D02*
X1681Y396D01*
X1691Y396D02*
X1701Y396D01*
X1724Y396D02*
X1733Y396D01*
X1760Y396D02*
X1769Y396D01*
X1808Y396D02*
X1816Y396D01*
X1856Y396D02*
X1878Y396D01*
X1889Y396D02*
X1899Y396D01*
X1923Y396D02*
X1935Y396D01*
X1952Y396D02*
X1964Y396D01*
X1593Y395D02*
X1601Y395D01*
X1659Y395D02*
X1679Y395D01*
X1692Y395D02*
X1701Y395D01*
X1724Y395D02*
X1733Y395D01*
X1760Y395D02*
X1769Y395D01*
X1808Y395D02*
X1816Y395D01*
X1856Y395D02*
X1877Y395D01*
X1891Y395D02*
X1900Y395D01*
X1923Y395D02*
X1934Y395D01*
X1953Y395D02*
X1964Y395D01*
X1593Y394D02*
X1615Y394D01*
X1659Y394D02*
X1678Y394D01*
X1693Y394D02*
X1702Y394D01*
X1724Y394D02*
X1733Y394D01*
X1760Y394D02*
X1769Y394D01*
X1808Y394D02*
X1816Y394D01*
X1856Y394D02*
X1876Y394D01*
X1891Y394D02*
X1900Y394D01*
X1922Y394D02*
X1933Y394D01*
X1955Y394D02*
X1965Y394D01*
X1593Y393D02*
X1617Y393D01*
X1659Y393D02*
X1676Y393D01*
X1693Y393D02*
X1702Y393D01*
X1724Y393D02*
X1733Y393D01*
X1760Y393D02*
X1769Y393D01*
X1808Y393D02*
X1816Y393D01*
X1856Y393D02*
X1875Y393D01*
X1892Y393D02*
X1900Y393D01*
X1922Y393D02*
X1932Y393D01*
X1956Y393D02*
X1965Y393D01*
X1593Y392D02*
X1618Y392D01*
X1659Y392D02*
X1675Y392D01*
X1694Y392D02*
X1702Y392D01*
X1725Y392D02*
X1734Y392D01*
X1759Y392D02*
X1768Y392D01*
X1808Y392D02*
X1816Y392D01*
X1856Y392D02*
X1874Y392D01*
X1892Y392D02*
X1900Y392D01*
X1922Y392D02*
X1931Y392D01*
X1956Y392D02*
X1965Y392D01*
X1593Y391D02*
X1619Y391D01*
X1659Y391D02*
X1673Y391D01*
X1694Y391D02*
X1702Y391D01*
X1725Y391D02*
X1734Y391D01*
X1759Y391D02*
X1768Y391D01*
X1808Y391D02*
X1816Y391D01*
X1856Y391D02*
X1873Y391D01*
X1892Y391D02*
X1900Y391D01*
X1922Y391D02*
X1930Y391D01*
X1957Y391D02*
X1966Y391D01*
X1593Y390D02*
X1619Y390D01*
X1659Y390D02*
X1672Y390D01*
X1694Y390D02*
X1702Y390D01*
X1725Y390D02*
X1734Y390D01*
X1759Y390D02*
X1768Y390D01*
X1808Y390D02*
X1816Y390D01*
X1856Y390D02*
X1871Y390D01*
X1892Y390D02*
X1900Y390D01*
X1922Y390D02*
X1930Y390D01*
X1957Y390D02*
X1966Y390D01*
X1593Y389D02*
X1619Y389D01*
X1659Y389D02*
X1670Y389D01*
X1694Y389D02*
X1702Y389D01*
X1726Y389D02*
X1735Y389D01*
X1758Y389D02*
X1767Y389D01*
X1808Y389D02*
X1816Y389D01*
X1856Y389D02*
X1870Y389D01*
X1892Y389D02*
X1900Y389D01*
X1921Y389D02*
X1930Y389D01*
X1958Y389D02*
X1966Y389D01*
X1593Y388D02*
X1619Y388D01*
X1659Y388D02*
X1669Y388D01*
X1694Y388D02*
X1702Y388D01*
X1726Y388D02*
X1735Y388D01*
X1758Y388D02*
X1767Y388D01*
X1808Y388D02*
X1816Y388D01*
X1856Y388D02*
X1869Y388D01*
X1892Y388D02*
X1900Y388D01*
X1921Y388D02*
X1930Y388D01*
X1958Y388D02*
X1966Y388D01*
X1593Y387D02*
X1618Y387D01*
X1659Y387D02*
X1667Y387D01*
X1694Y387D02*
X1702Y387D01*
X1727Y387D02*
X1736Y387D01*
X1757Y387D02*
X1766Y387D01*
X1808Y387D02*
X1816Y387D01*
X1856Y387D02*
X1868Y387D01*
X1893Y387D02*
X1899Y387D01*
X1921Y387D02*
X1930Y387D01*
X1958Y387D02*
X1966Y387D01*
X1593Y386D02*
X1617Y386D01*
X1659Y386D02*
X1667Y386D01*
X1694Y386D02*
X1702Y386D01*
X1727Y386D02*
X1736Y386D01*
X1757Y386D02*
X1766Y386D01*
X1808Y386D02*
X1816Y386D01*
X1856Y386D02*
X1867Y386D01*
X1894Y386D02*
X1898Y386D01*
X1921Y386D02*
X1930Y386D01*
X1958Y386D02*
X1966Y386D01*
X1593Y385D02*
X1615Y385D01*
X1659Y385D02*
X1667Y385D01*
X1694Y385D02*
X1702Y385D01*
X1728Y385D02*
X1737Y385D01*
X1756Y385D02*
X1765Y385D01*
X1808Y385D02*
X1816Y385D01*
X1856Y385D02*
X1866Y385D01*
X1896Y385D02*
X1896Y385D01*
X1921Y385D02*
X1930Y385D01*
X1958Y385D02*
X1966Y385D01*
X1593Y384D02*
X1601Y384D01*
X1659Y384D02*
X1667Y384D01*
X1694Y384D02*
X1702Y384D01*
X1728Y384D02*
X1737Y384D01*
X1756Y384D02*
X1765Y384D01*
X1808Y384D02*
X1816Y384D01*
X1856Y384D02*
X1865Y384D01*
X1921Y384D02*
X1930Y384D01*
X1958Y384D02*
X1966Y384D01*
X1593Y383D02*
X1601Y383D01*
X1659Y383D02*
X1667Y383D01*
X1694Y383D02*
X1702Y383D01*
X1728Y383D02*
X1737Y383D01*
X1756Y383D02*
X1764Y383D01*
X1808Y383D02*
X1816Y383D01*
X1856Y383D02*
X1864Y383D01*
X1921Y383D02*
X1930Y383D01*
X1958Y383D02*
X1966Y383D01*
X1593Y382D02*
X1601Y382D01*
X1659Y382D02*
X1667Y382D01*
X1694Y382D02*
X1702Y382D01*
X1729Y382D02*
X1738Y382D01*
X1755Y382D02*
X1764Y382D01*
X1808Y382D02*
X1816Y382D01*
X1856Y382D02*
X1864Y382D01*
X1921Y382D02*
X1930Y382D01*
X1958Y382D02*
X1966Y382D01*
X1593Y381D02*
X1601Y381D01*
X1659Y381D02*
X1667Y381D01*
X1694Y381D02*
X1702Y381D01*
X1729Y381D02*
X1738Y381D01*
X1755Y381D02*
X1764Y381D01*
X1808Y381D02*
X1816Y381D01*
X1856Y381D02*
X1864Y381D01*
X1921Y381D02*
X1930Y381D01*
X1958Y381D02*
X1966Y381D01*
X1593Y380D02*
X1601Y380D01*
X1659Y380D02*
X1667Y380D01*
X1694Y380D02*
X1702Y380D01*
X1730Y380D02*
X1739Y380D01*
X1754Y380D02*
X1763Y380D01*
X1808Y380D02*
X1816Y380D01*
X1856Y380D02*
X1864Y380D01*
X1921Y380D02*
X1930Y380D01*
X1958Y380D02*
X1966Y380D01*
X1593Y379D02*
X1601Y379D01*
X1659Y379D02*
X1667Y379D01*
X1694Y379D02*
X1702Y379D01*
X1730Y379D02*
X1739Y379D01*
X1754Y379D02*
X1763Y379D01*
X1808Y379D02*
X1816Y379D01*
X1856Y379D02*
X1864Y379D01*
X1921Y379D02*
X1930Y379D01*
X1958Y379D02*
X1966Y379D01*
X1593Y378D02*
X1601Y378D01*
X1659Y378D02*
X1667Y378D01*
X1694Y378D02*
X1702Y378D01*
X1731Y378D02*
X1740Y378D01*
X1753Y378D02*
X1762Y378D01*
X1808Y378D02*
X1816Y378D01*
X1856Y378D02*
X1864Y378D01*
X1921Y378D02*
X1930Y378D01*
X1958Y378D02*
X1966Y378D01*
X1593Y377D02*
X1601Y377D01*
X1659Y377D02*
X1667Y377D01*
X1694Y377D02*
X1702Y377D01*
X1731Y377D02*
X1740Y377D01*
X1753Y377D02*
X1762Y377D01*
X1808Y377D02*
X1816Y377D01*
X1856Y377D02*
X1864Y377D01*
X1921Y377D02*
X1930Y377D01*
X1958Y377D02*
X1966Y377D01*
X1593Y376D02*
X1601Y376D01*
X1659Y376D02*
X1667Y376D01*
X1694Y376D02*
X1702Y376D01*
X1732Y376D02*
X1741Y376D01*
X1752Y376D02*
X1761Y376D01*
X1808Y376D02*
X1816Y376D01*
X1856Y376D02*
X1864Y376D01*
X1921Y376D02*
X1930Y376D01*
X1958Y376D02*
X1966Y376D01*
X1593Y375D02*
X1601Y375D01*
X1659Y375D02*
X1667Y375D01*
X1694Y375D02*
X1702Y375D01*
X1732Y375D02*
X1741Y375D01*
X1752Y375D02*
X1761Y375D01*
X1808Y375D02*
X1816Y375D01*
X1856Y375D02*
X1864Y375D01*
X1921Y375D02*
X1930Y375D01*
X1958Y375D02*
X1966Y375D01*
X1593Y374D02*
X1601Y374D01*
X1659Y374D02*
X1667Y374D01*
X1694Y374D02*
X1702Y374D01*
X1732Y374D02*
X1741Y374D01*
X1752Y374D02*
X1761Y374D01*
X1808Y374D02*
X1816Y374D01*
X1856Y374D02*
X1864Y374D01*
X1921Y374D02*
X1930Y374D01*
X1958Y374D02*
X1966Y374D01*
X1593Y373D02*
X1601Y373D01*
X1659Y373D02*
X1667Y373D01*
X1694Y373D02*
X1702Y373D01*
X1733Y373D02*
X1742Y373D01*
X1751Y373D02*
X1760Y373D01*
X1808Y373D02*
X1816Y373D01*
X1856Y373D02*
X1864Y373D01*
X1921Y373D02*
X1930Y373D01*
X1958Y373D02*
X1966Y373D01*
X1593Y372D02*
X1601Y372D01*
X1659Y372D02*
X1667Y372D01*
X1694Y372D02*
X1702Y372D01*
X1733Y372D02*
X1742Y372D01*
X1751Y372D02*
X1760Y372D01*
X1808Y372D02*
X1816Y372D01*
X1856Y372D02*
X1864Y372D01*
X1921Y372D02*
X1930Y372D01*
X1958Y372D02*
X1966Y372D01*
X1593Y371D02*
X1601Y371D01*
X1659Y371D02*
X1667Y371D01*
X1694Y371D02*
X1702Y371D01*
X1734Y371D02*
X1743Y371D01*
X1750Y371D02*
X1759Y371D01*
X1808Y371D02*
X1816Y371D01*
X1856Y371D02*
X1864Y371D01*
X1921Y371D02*
X1930Y371D01*
X1958Y371D02*
X1966Y371D01*
X1593Y370D02*
X1601Y370D01*
X1659Y370D02*
X1667Y370D01*
X1694Y370D02*
X1703Y370D01*
X1734Y370D02*
X1743Y370D01*
X1750Y370D02*
X1759Y370D01*
X1808Y370D02*
X1816Y370D01*
X1856Y370D02*
X1864Y370D01*
X1921Y370D02*
X1930Y370D01*
X1957Y370D02*
X1966Y370D01*
X1593Y369D02*
X1601Y369D01*
X1659Y369D02*
X1667Y369D01*
X1694Y369D02*
X1703Y369D01*
X1735Y369D02*
X1744Y369D01*
X1749Y369D02*
X1758Y369D01*
X1808Y369D02*
X1816Y369D01*
X1856Y369D02*
X1864Y369D01*
X1922Y369D02*
X1930Y369D01*
X1957Y369D02*
X1966Y369D01*
X1593Y368D02*
X1601Y368D01*
X1659Y368D02*
X1667Y368D01*
X1694Y368D02*
X1703Y368D01*
X1735Y368D02*
X1744Y368D01*
X1749Y368D02*
X1758Y368D01*
X1808Y368D02*
X1816Y368D01*
X1856Y368D02*
X1864Y368D01*
X1922Y368D02*
X1930Y368D01*
X1957Y368D02*
X1966Y368D01*
X1593Y367D02*
X1601Y367D01*
X1659Y367D02*
X1667Y367D01*
X1694Y367D02*
X1703Y367D01*
X1735Y367D02*
X1744Y367D01*
X1748Y367D02*
X1757Y367D01*
X1808Y367D02*
X1816Y367D01*
X1856Y367D02*
X1864Y367D01*
X1922Y367D02*
X1931Y367D01*
X1956Y367D02*
X1965Y367D01*
X1593Y366D02*
X1601Y366D01*
X1659Y366D02*
X1667Y366D01*
X1695Y366D02*
X1703Y366D01*
X1736Y366D02*
X1745Y366D01*
X1748Y366D02*
X1757Y366D01*
X1808Y366D02*
X1816Y366D01*
X1856Y366D02*
X1864Y366D01*
X1922Y366D02*
X1932Y366D01*
X1955Y366D02*
X1965Y366D01*
X1593Y365D02*
X1601Y365D01*
X1659Y365D02*
X1667Y365D01*
X1695Y365D02*
X1703Y365D01*
X1736Y365D02*
X1745Y365D01*
X1748Y365D02*
X1757Y365D01*
X1808Y365D02*
X1816Y365D01*
X1856Y365D02*
X1864Y365D01*
X1923Y365D02*
X1934Y365D01*
X1953Y365D02*
X1964Y365D01*
X1593Y364D02*
X1601Y364D01*
X1659Y364D02*
X1667Y364D01*
X1695Y364D02*
X1703Y364D01*
X1737Y364D02*
X1756Y364D01*
X1808Y364D02*
X1816Y364D01*
X1856Y364D02*
X1864Y364D01*
X1923Y364D02*
X1935Y364D01*
X1952Y364D02*
X1964Y364D01*
X1593Y363D02*
X1634Y363D01*
X1659Y363D02*
X1667Y363D01*
X1695Y363D02*
X1703Y363D01*
X1737Y363D02*
X1756Y363D01*
X1798Y363D02*
X1826Y363D01*
X1856Y363D02*
X1864Y363D01*
X1924Y363D02*
X1963Y363D01*
X1593Y362D02*
X1636Y362D01*
X1659Y362D02*
X1667Y362D01*
X1695Y362D02*
X1703Y362D01*
X1738Y362D02*
X1755Y362D01*
X1796Y362D02*
X1828Y362D01*
X1856Y362D02*
X1864Y362D01*
X1924Y362D02*
X1962Y362D01*
X1593Y361D02*
X1637Y361D01*
X1659Y361D02*
X1667Y361D01*
X1695Y361D02*
X1703Y361D01*
X1738Y361D02*
X1755Y361D01*
X1795Y361D02*
X1829Y361D01*
X1856Y361D02*
X1864Y361D01*
X1925Y361D02*
X1962Y361D01*
X1593Y360D02*
X1637Y360D01*
X1659Y360D02*
X1667Y360D01*
X1695Y360D02*
X1703Y360D01*
X1739Y360D02*
X1754Y360D01*
X1795Y360D02*
X1830Y360D01*
X1856Y360D02*
X1864Y360D01*
X1926Y360D02*
X1961Y360D01*
X1593Y359D02*
X1637Y359D01*
X1659Y359D02*
X1667Y359D01*
X1695Y359D02*
X1703Y359D01*
X1739Y359D02*
X1754Y359D01*
X1795Y359D02*
X1830Y359D01*
X1856Y359D02*
X1864Y359D01*
X1928Y359D02*
X1959Y359D01*
X1593Y358D02*
X1637Y358D01*
X1659Y358D02*
X1667Y358D01*
X1695Y358D02*
X1703Y358D01*
X1739Y358D02*
X1754Y358D01*
X1795Y358D02*
X1830Y358D01*
X1856Y358D02*
X1864Y358D01*
X1929Y358D02*
X1958Y358D01*
X1593Y357D02*
X1637Y357D01*
X1659Y357D02*
X1667Y357D01*
X1695Y357D02*
X1703Y357D01*
X1740Y357D02*
X1753Y357D01*
X1795Y357D02*
X1829Y357D01*
X1856Y357D02*
X1864Y357D01*
X1930Y357D02*
X1957Y357D01*
X1593Y356D02*
X1636Y356D01*
X1660Y356D02*
X1666Y356D01*
X1696Y356D02*
X1702Y356D01*
X1740Y356D02*
X1753Y356D01*
X1796Y356D02*
X1829Y356D01*
X1857Y356D02*
X1863Y356D01*
X1931Y356D02*
X1956Y356D01*
X1593Y355D02*
X1635Y355D01*
X1661Y355D02*
X1665Y355D01*
X1697Y355D02*
X1701Y355D01*
X1741Y355D02*
X1752Y355D01*
X1797Y355D02*
X1828Y355D01*
X1858Y355D02*
X1862Y355D01*
X1933Y355D02*
X1954Y355D01*
X1804Y322D02*
X1809Y322D01*
X1802Y321D02*
X1811Y321D01*
X1801Y320D02*
X1812Y320D01*
X1800Y319D02*
X1812Y319D01*
X1590Y318D02*
X1600Y318D01*
X1623Y318D02*
X1634Y318D01*
X1800Y318D02*
X1813Y318D01*
X1590Y317D02*
X1601Y317D01*
X1622Y317D02*
X1634Y317D01*
X1800Y317D02*
X1813Y317D01*
X1590Y316D02*
X1602Y316D01*
X1622Y316D02*
X1634Y316D01*
X1800Y316D02*
X1813Y316D01*
X1590Y315D02*
X1602Y315D01*
X1621Y315D02*
X1634Y315D01*
X1800Y315D02*
X1813Y315D01*
X1590Y314D02*
X1603Y314D01*
X1620Y314D02*
X1634Y314D01*
X1800Y314D02*
X1813Y314D01*
X1864Y314D02*
X1867Y314D01*
X1590Y313D02*
X1604Y313D01*
X1620Y313D02*
X1634Y313D01*
X1800Y313D02*
X1813Y313D01*
X1863Y313D02*
X1868Y313D01*
X1590Y312D02*
X1604Y312D01*
X1619Y312D02*
X1634Y312D01*
X1800Y312D02*
X1812Y312D01*
X1862Y312D02*
X1869Y312D01*
X1590Y311D02*
X1605Y311D01*
X1618Y311D02*
X1634Y311D01*
X1801Y311D02*
X1812Y311D01*
X1861Y311D02*
X1869Y311D01*
X1590Y310D02*
X1606Y310D01*
X1617Y310D02*
X1634Y310D01*
X1802Y310D02*
X1811Y310D01*
X1861Y310D02*
X1869Y310D01*
X1590Y309D02*
X1606Y309D01*
X1617Y309D02*
X1634Y309D01*
X1861Y309D02*
X1869Y309D01*
X1590Y308D02*
X1607Y308D01*
X1616Y308D02*
X1634Y308D01*
X1861Y308D02*
X1869Y308D01*
X1590Y307D02*
X1608Y307D01*
X1615Y307D02*
X1634Y307D01*
X1861Y307D02*
X1869Y307D01*
X1590Y306D02*
X1609Y306D01*
X1615Y306D02*
X1634Y306D01*
X1861Y306D02*
X1869Y306D01*
X1590Y305D02*
X1609Y305D01*
X1614Y305D02*
X1634Y305D01*
X1861Y305D02*
X1869Y305D01*
X1590Y304D02*
X1598Y304D01*
X1600Y304D02*
X1610Y304D01*
X1613Y304D02*
X1623Y304D01*
X1626Y304D02*
X1634Y304D01*
X1861Y304D02*
X1869Y304D01*
X1590Y303D02*
X1598Y303D01*
X1600Y303D02*
X1611Y303D01*
X1613Y303D02*
X1623Y303D01*
X1626Y303D02*
X1634Y303D01*
X1861Y303D02*
X1869Y303D01*
X1590Y302D02*
X1598Y302D01*
X1601Y302D02*
X1622Y302D01*
X1626Y302D02*
X1634Y302D01*
X1861Y302D02*
X1869Y302D01*
X1590Y301D02*
X1598Y301D01*
X1602Y301D02*
X1621Y301D01*
X1626Y301D02*
X1634Y301D01*
X1861Y301D02*
X1869Y301D01*
X1590Y300D02*
X1598Y300D01*
X1603Y300D02*
X1621Y300D01*
X1626Y300D02*
X1634Y300D01*
X1861Y300D02*
X1869Y300D01*
X1590Y299D02*
X1598Y299D01*
X1603Y299D02*
X1620Y299D01*
X1626Y299D02*
X1634Y299D01*
X1861Y299D02*
X1870Y299D01*
X1590Y298D02*
X1598Y298D01*
X1604Y298D02*
X1619Y298D01*
X1626Y298D02*
X1634Y298D01*
X1667Y298D02*
X1687Y298D01*
X1723Y298D02*
X1727Y298D01*
X1741Y298D02*
X1755Y298D01*
X1793Y298D02*
X1811Y298D01*
X1854Y298D02*
X1890Y298D01*
X1930Y298D02*
X1950Y298D01*
X1985Y298D02*
X1990Y298D01*
X2003Y298D02*
X2019Y298D01*
X1590Y297D02*
X1598Y297D01*
X1605Y297D02*
X1619Y297D01*
X1626Y297D02*
X1634Y297D01*
X1665Y297D02*
X1689Y297D01*
X1722Y297D02*
X1728Y297D01*
X1739Y297D02*
X1757Y297D01*
X1792Y297D02*
X1812Y297D01*
X1853Y297D02*
X1891Y297D01*
X1928Y297D02*
X1952Y297D01*
X1985Y297D02*
X1991Y297D01*
X2002Y297D02*
X2021Y297D01*
X1590Y296D02*
X1598Y296D01*
X1605Y296D02*
X1618Y296D01*
X1626Y296D02*
X1634Y296D01*
X1664Y296D02*
X1691Y296D01*
X1721Y296D02*
X1729Y296D01*
X1738Y296D02*
X1759Y296D01*
X1791Y296D02*
X1812Y296D01*
X1853Y296D02*
X1892Y296D01*
X1926Y296D02*
X1954Y296D01*
X1984Y296D02*
X1991Y296D01*
X2001Y296D02*
X2023Y296D01*
X1590Y295D02*
X1598Y295D01*
X1606Y295D02*
X1617Y295D01*
X1626Y295D02*
X1634Y295D01*
X1662Y295D02*
X1692Y295D01*
X1721Y295D02*
X1729Y295D01*
X1736Y295D02*
X1760Y295D01*
X1791Y295D02*
X1813Y295D01*
X1852Y295D02*
X1892Y295D01*
X1925Y295D02*
X1955Y295D01*
X1984Y295D02*
X1992Y295D01*
X2000Y295D02*
X2024Y295D01*
X1590Y294D02*
X1598Y294D01*
X1607Y294D02*
X1616Y294D01*
X1626Y294D02*
X1634Y294D01*
X1661Y294D02*
X1693Y294D01*
X1721Y294D02*
X1729Y294D01*
X1734Y294D02*
X1761Y294D01*
X1791Y294D02*
X1813Y294D01*
X1852Y294D02*
X1892Y294D01*
X1924Y294D02*
X1956Y294D01*
X1984Y294D02*
X1992Y294D01*
X1999Y294D02*
X2025Y294D01*
X1590Y293D02*
X1598Y293D01*
X1607Y293D02*
X1616Y293D01*
X1626Y293D02*
X1634Y293D01*
X1660Y293D02*
X1695Y293D01*
X1721Y293D02*
X1729Y293D01*
X1733Y293D02*
X1762Y293D01*
X1791Y293D02*
X1813Y293D01*
X1852Y293D02*
X1892Y293D01*
X1923Y293D02*
X1957Y293D01*
X1984Y293D02*
X1992Y293D01*
X1997Y293D02*
X2025Y293D01*
X1590Y292D02*
X1598Y292D01*
X1608Y292D02*
X1616Y292D01*
X1626Y292D02*
X1634Y292D01*
X1659Y292D02*
X1696Y292D01*
X1721Y292D02*
X1729Y292D01*
X1731Y292D02*
X1762Y292D01*
X1792Y292D02*
X1813Y292D01*
X1853Y292D02*
X1891Y292D01*
X1922Y292D02*
X1958Y292D01*
X1984Y292D02*
X1992Y292D01*
X1996Y292D02*
X2026Y292D01*
X1590Y291D02*
X1598Y291D01*
X1608Y291D02*
X1616Y291D01*
X1626Y291D02*
X1634Y291D01*
X1658Y291D02*
X1696Y291D01*
X1721Y291D02*
X1763Y291D01*
X1793Y291D02*
X1813Y291D01*
X1854Y291D02*
X1890Y291D01*
X1921Y291D02*
X1959Y291D01*
X1984Y291D02*
X1992Y291D01*
X1995Y291D02*
X2027Y291D01*
X1590Y290D02*
X1598Y290D01*
X1608Y290D02*
X1616Y290D01*
X1626Y290D02*
X1634Y290D01*
X1658Y290D02*
X1697Y290D01*
X1721Y290D02*
X1763Y290D01*
X1795Y290D02*
X1813Y290D01*
X1856Y290D02*
X1888Y290D01*
X1920Y290D02*
X1960Y290D01*
X1984Y290D02*
X1992Y290D01*
X1994Y290D02*
X2027Y290D01*
X1590Y289D02*
X1598Y289D01*
X1608Y289D02*
X1615Y289D01*
X1626Y289D02*
X1634Y289D01*
X1657Y289D02*
X1669Y289D01*
X1686Y289D02*
X1698Y289D01*
X1721Y289D02*
X1743Y289D01*
X1754Y289D02*
X1763Y289D01*
X1805Y289D02*
X1813Y289D01*
X1861Y289D02*
X1869Y289D01*
X1920Y289D02*
X1931Y289D01*
X1949Y289D02*
X1960Y289D01*
X1984Y289D02*
X2006Y289D01*
X2018Y289D02*
X2027Y289D01*
X1590Y288D02*
X1598Y288D01*
X1608Y288D02*
X1615Y288D01*
X1626Y288D02*
X1634Y288D01*
X1656Y288D02*
X1667Y288D01*
X1688Y288D02*
X1698Y288D01*
X1721Y288D02*
X1741Y288D01*
X1755Y288D02*
X1764Y288D01*
X1805Y288D02*
X1813Y288D01*
X1861Y288D02*
X1869Y288D01*
X1919Y288D02*
X1930Y288D01*
X1950Y288D02*
X1961Y288D01*
X1984Y288D02*
X2005Y288D01*
X2019Y288D02*
X2028Y288D01*
X1590Y287D02*
X1598Y287D01*
X1609Y287D02*
X1614Y287D01*
X1626Y287D02*
X1634Y287D01*
X1656Y287D02*
X1666Y287D01*
X1689Y287D02*
X1699Y287D01*
X1721Y287D02*
X1740Y287D01*
X1755Y287D02*
X1764Y287D01*
X1805Y287D02*
X1813Y287D01*
X1861Y287D02*
X1869Y287D01*
X1919Y287D02*
X1929Y287D01*
X1952Y287D02*
X1961Y287D01*
X1984Y287D02*
X2004Y287D01*
X2019Y287D02*
X2028Y287D01*
X1590Y286D02*
X1598Y286D01*
X1612Y286D02*
X1612Y286D01*
X1626Y286D02*
X1634Y286D01*
X1656Y286D02*
X1665Y286D01*
X1690Y286D02*
X1699Y286D01*
X1721Y286D02*
X1738Y286D01*
X1756Y286D02*
X1764Y286D01*
X1805Y286D02*
X1813Y286D01*
X1861Y286D02*
X1869Y286D01*
X1918Y286D02*
X1928Y286D01*
X1952Y286D02*
X1962Y286D01*
X1984Y286D02*
X2002Y286D01*
X2020Y286D02*
X2028Y286D01*
X1590Y285D02*
X1598Y285D01*
X1626Y285D02*
X1634Y285D01*
X1656Y285D02*
X1664Y285D01*
X1690Y285D02*
X1699Y285D01*
X1721Y285D02*
X1736Y285D01*
X1756Y285D02*
X1764Y285D01*
X1805Y285D02*
X1813Y285D01*
X1861Y285D02*
X1869Y285D01*
X1918Y285D02*
X1927Y285D01*
X1953Y285D02*
X1962Y285D01*
X1984Y285D02*
X2001Y285D01*
X2020Y285D02*
X2028Y285D01*
X1590Y284D02*
X1598Y284D01*
X1626Y284D02*
X1634Y284D01*
X1655Y284D02*
X1664Y284D01*
X1691Y284D02*
X1699Y284D01*
X1721Y284D02*
X1735Y284D01*
X1756Y284D02*
X1764Y284D01*
X1805Y284D02*
X1813Y284D01*
X1861Y284D02*
X1869Y284D01*
X1918Y284D02*
X1926Y284D01*
X1954Y284D02*
X1962Y284D01*
X1984Y284D02*
X2000Y284D01*
X2020Y284D02*
X2028Y284D01*
X1590Y283D02*
X1598Y283D01*
X1626Y283D02*
X1634Y283D01*
X1655Y283D02*
X1663Y283D01*
X1691Y283D02*
X1699Y283D01*
X1721Y283D02*
X1733Y283D01*
X1756Y283D02*
X1764Y283D01*
X1805Y283D02*
X1813Y283D01*
X1861Y283D02*
X1869Y283D01*
X1918Y283D02*
X1926Y283D01*
X1954Y283D02*
X1962Y283D01*
X1984Y283D02*
X1999Y283D01*
X2020Y283D02*
X2028Y283D01*
X1590Y282D02*
X1598Y282D01*
X1626Y282D02*
X1634Y282D01*
X1655Y282D02*
X1663Y282D01*
X1691Y282D02*
X1699Y282D01*
X1721Y282D02*
X1732Y282D01*
X1756Y282D02*
X1764Y282D01*
X1805Y282D02*
X1813Y282D01*
X1861Y282D02*
X1869Y282D01*
X1918Y282D02*
X1926Y282D01*
X1954Y282D02*
X1962Y282D01*
X1984Y282D02*
X1998Y282D01*
X2020Y282D02*
X2028Y282D01*
X1590Y281D02*
X1598Y281D01*
X1626Y281D02*
X1634Y281D01*
X1655Y281D02*
X1663Y281D01*
X1691Y281D02*
X1699Y281D01*
X1721Y281D02*
X1730Y281D01*
X1756Y281D02*
X1764Y281D01*
X1805Y281D02*
X1813Y281D01*
X1861Y281D02*
X1869Y281D01*
X1918Y281D02*
X1926Y281D01*
X1954Y281D02*
X1962Y281D01*
X1984Y281D02*
X1997Y281D01*
X2020Y281D02*
X2027Y281D01*
X1590Y280D02*
X1598Y280D01*
X1626Y280D02*
X1634Y280D01*
X1655Y280D02*
X1663Y280D01*
X1691Y280D02*
X1699Y280D01*
X1721Y280D02*
X1729Y280D01*
X1756Y280D02*
X1764Y280D01*
X1805Y280D02*
X1813Y280D01*
X1861Y280D02*
X1869Y280D01*
X1918Y280D02*
X1926Y280D01*
X1954Y280D02*
X1962Y280D01*
X1984Y280D02*
X1995Y280D01*
X2021Y280D02*
X2027Y280D01*
X1590Y279D02*
X1598Y279D01*
X1626Y279D02*
X1634Y279D01*
X1655Y279D02*
X1663Y279D01*
X1691Y279D02*
X1699Y279D01*
X1721Y279D02*
X1729Y279D01*
X1756Y279D02*
X1764Y279D01*
X1805Y279D02*
X1813Y279D01*
X1861Y279D02*
X1869Y279D01*
X1918Y279D02*
X1926Y279D01*
X1954Y279D02*
X1962Y279D01*
X1984Y279D02*
X1994Y279D01*
X2022Y279D02*
X2026Y279D01*
X1590Y278D02*
X1598Y278D01*
X1626Y278D02*
X1634Y278D01*
X1655Y278D02*
X1663Y278D01*
X1691Y278D02*
X1699Y278D01*
X1721Y278D02*
X1729Y278D01*
X1756Y278D02*
X1764Y278D01*
X1805Y278D02*
X1813Y278D01*
X1861Y278D02*
X1869Y278D01*
X1918Y278D02*
X1926Y278D01*
X1954Y278D02*
X1962Y278D01*
X1984Y278D02*
X1993Y278D01*
X1590Y277D02*
X1598Y277D01*
X1626Y277D02*
X1634Y277D01*
X1655Y277D02*
X1663Y277D01*
X1691Y277D02*
X1699Y277D01*
X1721Y277D02*
X1729Y277D01*
X1756Y277D02*
X1764Y277D01*
X1805Y277D02*
X1813Y277D01*
X1861Y277D02*
X1869Y277D01*
X1918Y277D02*
X1926Y277D01*
X1954Y277D02*
X1962Y277D01*
X1984Y277D02*
X1992Y277D01*
X1590Y276D02*
X1598Y276D01*
X1626Y276D02*
X1634Y276D01*
X1655Y276D02*
X1663Y276D01*
X1691Y276D02*
X1699Y276D01*
X1721Y276D02*
X1729Y276D01*
X1756Y276D02*
X1764Y276D01*
X1805Y276D02*
X1813Y276D01*
X1861Y276D02*
X1869Y276D01*
X1918Y276D02*
X1926Y276D01*
X1954Y276D02*
X1962Y276D01*
X1984Y276D02*
X1992Y276D01*
X1590Y275D02*
X1598Y275D01*
X1626Y275D02*
X1634Y275D01*
X1655Y275D02*
X1663Y275D01*
X1691Y275D02*
X1699Y275D01*
X1721Y275D02*
X1729Y275D01*
X1756Y275D02*
X1764Y275D01*
X1805Y275D02*
X1813Y275D01*
X1861Y275D02*
X1869Y275D01*
X1918Y275D02*
X1926Y275D01*
X1954Y275D02*
X1962Y275D01*
X1984Y275D02*
X1992Y275D01*
X1590Y274D02*
X1598Y274D01*
X1626Y274D02*
X1634Y274D01*
X1655Y274D02*
X1663Y274D01*
X1691Y274D02*
X1699Y274D01*
X1721Y274D02*
X1729Y274D01*
X1756Y274D02*
X1764Y274D01*
X1805Y274D02*
X1813Y274D01*
X1861Y274D02*
X1869Y274D01*
X1918Y274D02*
X1926Y274D01*
X1954Y274D02*
X1962Y274D01*
X1984Y274D02*
X1992Y274D01*
X1590Y273D02*
X1598Y273D01*
X1626Y273D02*
X1634Y273D01*
X1655Y273D02*
X1663Y273D01*
X1691Y273D02*
X1699Y273D01*
X1721Y273D02*
X1729Y273D01*
X1756Y273D02*
X1764Y273D01*
X1805Y273D02*
X1813Y273D01*
X1861Y273D02*
X1869Y273D01*
X1918Y273D02*
X1926Y273D01*
X1954Y273D02*
X1962Y273D01*
X1984Y273D02*
X1992Y273D01*
X1590Y272D02*
X1598Y272D01*
X1626Y272D02*
X1634Y272D01*
X1655Y272D02*
X1663Y272D01*
X1691Y272D02*
X1699Y272D01*
X1721Y272D02*
X1729Y272D01*
X1756Y272D02*
X1764Y272D01*
X1805Y272D02*
X1813Y272D01*
X1861Y272D02*
X1869Y272D01*
X1918Y272D02*
X1926Y272D01*
X1954Y272D02*
X1962Y272D01*
X1984Y272D02*
X1992Y272D01*
X1590Y271D02*
X1598Y271D01*
X1626Y271D02*
X1634Y271D01*
X1655Y271D02*
X1663Y271D01*
X1691Y271D02*
X1699Y271D01*
X1721Y271D02*
X1729Y271D01*
X1756Y271D02*
X1764Y271D01*
X1805Y271D02*
X1813Y271D01*
X1861Y271D02*
X1869Y271D01*
X1918Y271D02*
X1926Y271D01*
X1954Y271D02*
X1962Y271D01*
X1984Y271D02*
X1992Y271D01*
X1590Y270D02*
X1598Y270D01*
X1626Y270D02*
X1634Y270D01*
X1655Y270D02*
X1663Y270D01*
X1691Y270D02*
X1699Y270D01*
X1721Y270D02*
X1729Y270D01*
X1756Y270D02*
X1764Y270D01*
X1805Y270D02*
X1813Y270D01*
X1861Y270D02*
X1869Y270D01*
X1918Y270D02*
X1926Y270D01*
X1954Y270D02*
X1962Y270D01*
X1984Y270D02*
X1992Y270D01*
X1590Y269D02*
X1598Y269D01*
X1626Y269D02*
X1634Y269D01*
X1655Y269D02*
X1663Y269D01*
X1691Y269D02*
X1699Y269D01*
X1721Y269D02*
X1729Y269D01*
X1756Y269D02*
X1764Y269D01*
X1805Y269D02*
X1813Y269D01*
X1861Y269D02*
X1869Y269D01*
X1918Y269D02*
X1926Y269D01*
X1954Y269D02*
X1962Y269D01*
X1984Y269D02*
X1992Y269D01*
X1590Y268D02*
X1598Y268D01*
X1626Y268D02*
X1634Y268D01*
X1655Y268D02*
X1663Y268D01*
X1691Y268D02*
X1699Y268D01*
X1721Y268D02*
X1729Y268D01*
X1756Y268D02*
X1765Y268D01*
X1805Y268D02*
X1813Y268D01*
X1861Y268D02*
X1869Y268D01*
X1918Y268D02*
X1926Y268D01*
X1954Y268D02*
X1962Y268D01*
X1984Y268D02*
X1992Y268D01*
X1590Y267D02*
X1598Y267D01*
X1626Y267D02*
X1634Y267D01*
X1655Y267D02*
X1663Y267D01*
X1691Y267D02*
X1699Y267D01*
X1721Y267D02*
X1729Y267D01*
X1756Y267D02*
X1765Y267D01*
X1805Y267D02*
X1813Y267D01*
X1861Y267D02*
X1869Y267D01*
X1918Y267D02*
X1926Y267D01*
X1954Y267D02*
X1962Y267D01*
X1984Y267D02*
X1992Y267D01*
X1590Y266D02*
X1598Y266D01*
X1626Y266D02*
X1634Y266D01*
X1655Y266D02*
X1663Y266D01*
X1691Y266D02*
X1699Y266D01*
X1721Y266D02*
X1729Y266D01*
X1756Y266D02*
X1765Y266D01*
X1805Y266D02*
X1813Y266D01*
X1861Y266D02*
X1869Y266D01*
X1918Y266D02*
X1926Y266D01*
X1954Y266D02*
X1962Y266D01*
X1984Y266D02*
X1992Y266D01*
X1590Y265D02*
X1598Y265D01*
X1626Y265D02*
X1634Y265D01*
X1655Y265D02*
X1663Y265D01*
X1691Y265D02*
X1699Y265D01*
X1721Y265D02*
X1729Y265D01*
X1756Y265D02*
X1765Y265D01*
X1805Y265D02*
X1813Y265D01*
X1861Y265D02*
X1869Y265D01*
X1918Y265D02*
X1926Y265D01*
X1954Y265D02*
X1962Y265D01*
X1984Y265D02*
X1992Y265D01*
X1590Y264D02*
X1598Y264D01*
X1626Y264D02*
X1634Y264D01*
X1655Y264D02*
X1663Y264D01*
X1691Y264D02*
X1699Y264D01*
X1721Y264D02*
X1729Y264D01*
X1757Y264D02*
X1765Y264D01*
X1805Y264D02*
X1813Y264D01*
X1861Y264D02*
X1869Y264D01*
X1891Y264D02*
X1893Y264D01*
X1918Y264D02*
X1926Y264D01*
X1954Y264D02*
X1962Y264D01*
X1984Y264D02*
X1992Y264D01*
X1590Y263D02*
X1598Y263D01*
X1626Y263D02*
X1634Y263D01*
X1655Y263D02*
X1664Y263D01*
X1691Y263D02*
X1699Y263D01*
X1721Y263D02*
X1729Y263D01*
X1757Y263D02*
X1765Y263D01*
X1805Y263D02*
X1813Y263D01*
X1861Y263D02*
X1869Y263D01*
X1890Y263D02*
X1895Y263D01*
X1918Y263D02*
X1926Y263D01*
X1954Y263D02*
X1962Y263D01*
X1984Y263D02*
X1992Y263D01*
X1590Y262D02*
X1598Y262D01*
X1626Y262D02*
X1634Y262D01*
X1655Y262D02*
X1664Y262D01*
X1691Y262D02*
X1699Y262D01*
X1721Y262D02*
X1729Y262D01*
X1757Y262D02*
X1765Y262D01*
X1805Y262D02*
X1813Y262D01*
X1861Y262D02*
X1869Y262D01*
X1889Y262D02*
X1896Y262D01*
X1918Y262D02*
X1927Y262D01*
X1954Y262D02*
X1962Y262D01*
X1984Y262D02*
X1992Y262D01*
X1590Y261D02*
X1598Y261D01*
X1626Y261D02*
X1634Y261D01*
X1655Y261D02*
X1664Y261D01*
X1690Y261D02*
X1699Y261D01*
X1721Y261D02*
X1729Y261D01*
X1757Y261D02*
X1765Y261D01*
X1805Y261D02*
X1813Y261D01*
X1861Y261D02*
X1869Y261D01*
X1889Y261D02*
X1896Y261D01*
X1918Y261D02*
X1927Y261D01*
X1953Y261D02*
X1962Y261D01*
X1984Y261D02*
X1992Y261D01*
X1590Y260D02*
X1598Y260D01*
X1626Y260D02*
X1634Y260D01*
X1656Y260D02*
X1665Y260D01*
X1689Y260D02*
X1699Y260D01*
X1721Y260D02*
X1729Y260D01*
X1757Y260D02*
X1765Y260D01*
X1805Y260D02*
X1813Y260D01*
X1861Y260D02*
X1870Y260D01*
X1888Y260D02*
X1896Y260D01*
X1918Y260D02*
X1928Y260D01*
X1952Y260D02*
X1962Y260D01*
X1984Y260D02*
X1992Y260D01*
X1590Y259D02*
X1598Y259D01*
X1626Y259D02*
X1634Y259D01*
X1656Y259D02*
X1666Y259D01*
X1688Y259D02*
X1699Y259D01*
X1721Y259D02*
X1729Y259D01*
X1757Y259D02*
X1765Y259D01*
X1805Y259D02*
X1813Y259D01*
X1861Y259D02*
X1870Y259D01*
X1888Y259D02*
X1896Y259D01*
X1919Y259D02*
X1929Y259D01*
X1951Y259D02*
X1961Y259D01*
X1984Y259D02*
X1992Y259D01*
X1590Y258D02*
X1598Y258D01*
X1626Y258D02*
X1634Y258D01*
X1656Y258D02*
X1668Y258D01*
X1687Y258D02*
X1698Y258D01*
X1721Y258D02*
X1729Y258D01*
X1757Y258D02*
X1765Y258D01*
X1805Y258D02*
X1813Y258D01*
X1862Y258D02*
X1871Y258D01*
X1887Y258D02*
X1896Y258D01*
X1919Y258D02*
X1930Y258D01*
X1950Y258D02*
X1961Y258D01*
X1984Y258D02*
X1992Y258D01*
X1590Y257D02*
X1598Y257D01*
X1626Y257D02*
X1634Y257D01*
X1657Y257D02*
X1669Y257D01*
X1685Y257D02*
X1698Y257D01*
X1721Y257D02*
X1729Y257D01*
X1757Y257D02*
X1765Y257D01*
X1805Y257D02*
X1813Y257D01*
X1862Y257D02*
X1872Y257D01*
X1886Y257D02*
X1896Y257D01*
X1920Y257D02*
X1932Y257D01*
X1948Y257D02*
X1960Y257D01*
X1984Y257D02*
X1992Y257D01*
X1590Y256D02*
X1598Y256D01*
X1626Y256D02*
X1634Y256D01*
X1658Y256D02*
X1697Y256D01*
X1721Y256D02*
X1729Y256D01*
X1757Y256D02*
X1765Y256D01*
X1794Y256D02*
X1824Y256D01*
X1862Y256D02*
X1896Y256D01*
X1920Y256D02*
X1960Y256D01*
X1984Y256D02*
X1992Y256D01*
X1590Y255D02*
X1598Y255D01*
X1626Y255D02*
X1634Y255D01*
X1658Y255D02*
X1696Y255D01*
X1721Y255D02*
X1729Y255D01*
X1757Y255D02*
X1765Y255D01*
X1792Y255D02*
X1825Y255D01*
X1863Y255D02*
X1895Y255D01*
X1921Y255D02*
X1959Y255D01*
X1984Y255D02*
X1992Y255D01*
X1590Y254D02*
X1598Y254D01*
X1626Y254D02*
X1634Y254D01*
X1659Y254D02*
X1695Y254D01*
X1721Y254D02*
X1729Y254D01*
X1757Y254D02*
X1765Y254D01*
X1792Y254D02*
X1826Y254D01*
X1863Y254D02*
X1894Y254D01*
X1922Y254D02*
X1958Y254D01*
X1984Y254D02*
X1992Y254D01*
X1590Y253D02*
X1598Y253D01*
X1626Y253D02*
X1634Y253D01*
X1660Y253D02*
X1694Y253D01*
X1721Y253D02*
X1729Y253D01*
X1757Y253D02*
X1765Y253D01*
X1791Y253D02*
X1826Y253D01*
X1864Y253D02*
X1894Y253D01*
X1923Y253D02*
X1957Y253D01*
X1984Y253D02*
X1992Y253D01*
X1590Y252D02*
X1598Y252D01*
X1626Y252D02*
X1634Y252D01*
X1662Y252D02*
X1693Y252D01*
X1721Y252D02*
X1729Y252D01*
X1757Y252D02*
X1765Y252D01*
X1791Y252D02*
X1826Y252D01*
X1865Y252D02*
X1893Y252D01*
X1924Y252D02*
X1956Y252D01*
X1984Y252D02*
X1992Y252D01*
X1590Y251D02*
X1598Y251D01*
X1626Y251D02*
X1634Y251D01*
X1663Y251D02*
X1692Y251D01*
X1721Y251D02*
X1729Y251D01*
X1757Y251D02*
X1765Y251D01*
X1791Y251D02*
X1826Y251D01*
X1866Y251D02*
X1892Y251D01*
X1926Y251D02*
X1954Y251D01*
X1984Y251D02*
X1992Y251D01*
X1590Y250D02*
X1597Y250D01*
X1626Y250D02*
X1633Y250D01*
X1664Y250D02*
X1690Y250D01*
X1721Y250D02*
X1729Y250D01*
X1757Y250D02*
X1765Y250D01*
X1792Y250D02*
X1826Y250D01*
X1867Y250D02*
X1891Y250D01*
X1927Y250D02*
X1953Y250D01*
X1984Y250D02*
X1991Y250D01*
X1591Y249D02*
X1596Y249D01*
X1627Y249D02*
X1633Y249D01*
X1666Y249D02*
X1689Y249D01*
X1722Y249D02*
X1728Y249D01*
X1758Y249D02*
X1764Y249D01*
X1792Y249D02*
X1825Y249D01*
X1869Y249D02*
X1889Y249D01*
X1929Y249D02*
X1952Y249D01*
X1985Y249D02*
X1991Y249D01*
X1592Y248D02*
X1595Y248D01*
X1628Y248D02*
X1631Y248D01*
X1668Y248D02*
X1686Y248D01*
X1723Y248D02*
X1727Y248D01*
X1759Y248D02*
X1763Y248D01*
X1793Y248D02*
X1824Y248D01*
X1871Y248D02*
X1887Y248D01*
X1931Y248D02*
X1949Y248D01*
X1986Y248D02*
X1989Y248D01*
X1708Y199D02*
X1731Y199D01*
X1857Y199D02*
X1886Y199D01*
X1705Y198D02*
X1732Y198D01*
X1853Y198D02*
X1890Y198D01*
X1704Y197D02*
X1732Y197D01*
X1852Y197D02*
X1892Y197D01*
X1703Y196D02*
X1732Y196D01*
X1850Y196D02*
X1893Y196D01*
X1703Y195D02*
X1732Y195D01*
X1849Y195D02*
X1894Y195D01*
X1703Y194D02*
X1732Y194D01*
X1849Y194D02*
X1895Y194D01*
X1703Y193D02*
X1732Y193D01*
X1848Y193D02*
X1895Y193D01*
X1703Y192D02*
X1732Y192D01*
X1848Y192D02*
X1896Y192D01*
X1704Y191D02*
X1732Y191D01*
X1848Y191D02*
X1896Y191D01*
X1705Y190D02*
X1732Y190D01*
X1847Y190D02*
X1896Y190D01*
X1707Y189D02*
X1732Y189D01*
X1847Y189D02*
X1896Y189D01*
X1723Y188D02*
X1732Y188D01*
X1847Y188D02*
X1856Y188D01*
X1887Y188D02*
X1896Y188D01*
X1723Y187D02*
X1732Y187D01*
X1847Y187D02*
X1856Y187D01*
X1887Y187D02*
X1896Y187D01*
X1723Y186D02*
X1732Y186D01*
X1847Y186D02*
X1856Y186D01*
X1887Y186D02*
X1896Y186D01*
X1723Y185D02*
X1732Y185D01*
X1847Y185D02*
X1856Y185D01*
X1887Y185D02*
X1896Y185D01*
X1723Y184D02*
X1732Y184D01*
X1847Y184D02*
X1856Y184D01*
X1887Y184D02*
X1896Y184D01*
X1723Y183D02*
X1732Y183D01*
X1847Y183D02*
X1856Y183D01*
X1887Y183D02*
X1896Y183D01*
X1723Y182D02*
X1732Y182D01*
X1847Y182D02*
X1856Y182D01*
X1887Y182D02*
X1896Y182D01*
X1723Y181D02*
X1732Y181D01*
X1847Y181D02*
X1856Y181D01*
X1887Y181D02*
X1896Y181D01*
X1723Y180D02*
X1732Y180D01*
X1847Y180D02*
X1856Y180D01*
X1887Y180D02*
X1896Y180D01*
X1723Y179D02*
X1732Y179D01*
X1847Y179D02*
X1856Y179D01*
X1887Y179D02*
X1896Y179D01*
X1723Y178D02*
X1732Y178D01*
X1847Y178D02*
X1856Y178D01*
X1887Y178D02*
X1896Y178D01*
X1633Y177D02*
X1637Y177D01*
X1673Y177D02*
X1677Y177D01*
X1723Y177D02*
X1732Y177D01*
X1847Y177D02*
X1856Y177D01*
X1887Y177D02*
X1896Y177D01*
X1632Y176D02*
X1638Y176D01*
X1671Y176D02*
X1678Y176D01*
X1723Y176D02*
X1732Y176D01*
X1847Y176D02*
X1856Y176D01*
X1887Y176D02*
X1896Y176D01*
X1631Y175D02*
X1639Y175D01*
X1671Y175D02*
X1679Y175D01*
X1723Y175D02*
X1732Y175D01*
X1847Y175D02*
X1856Y175D01*
X1887Y175D02*
X1896Y175D01*
X1631Y174D02*
X1639Y174D01*
X1670Y174D02*
X1679Y174D01*
X1723Y174D02*
X1732Y174D01*
X1847Y174D02*
X1856Y174D01*
X1887Y174D02*
X1896Y174D01*
X1631Y173D02*
X1640Y173D01*
X1670Y173D02*
X1679Y173D01*
X1723Y173D02*
X1732Y173D01*
X1847Y173D02*
X1856Y173D01*
X1887Y173D02*
X1896Y173D01*
X1630Y172D02*
X1640Y172D01*
X1670Y172D02*
X1679Y172D01*
X1723Y172D02*
X1732Y172D01*
X1847Y172D02*
X1856Y172D01*
X1887Y172D02*
X1896Y172D01*
X1630Y171D02*
X1640Y171D01*
X1670Y171D02*
X1679Y171D01*
X1723Y171D02*
X1732Y171D01*
X1847Y171D02*
X1856Y171D01*
X1887Y171D02*
X1896Y171D01*
X1630Y170D02*
X1640Y170D01*
X1670Y170D02*
X1679Y170D01*
X1723Y170D02*
X1732Y170D01*
X1847Y170D02*
X1856Y170D01*
X1887Y170D02*
X1896Y170D01*
X1630Y169D02*
X1640Y169D01*
X1670Y169D02*
X1679Y169D01*
X1723Y169D02*
X1732Y169D01*
X1847Y169D02*
X1856Y169D01*
X1887Y169D02*
X1896Y169D01*
X1630Y168D02*
X1640Y168D01*
X1670Y168D02*
X1679Y168D01*
X1723Y168D02*
X1732Y168D01*
X1847Y168D02*
X1856Y168D01*
X1887Y168D02*
X1896Y168D01*
X1630Y167D02*
X1640Y167D01*
X1670Y167D02*
X1679Y167D01*
X1723Y167D02*
X1732Y167D01*
X1847Y167D02*
X1856Y167D01*
X1887Y167D02*
X1896Y167D01*
X1630Y166D02*
X1640Y166D01*
X1670Y166D02*
X1679Y166D01*
X1723Y166D02*
X1732Y166D01*
X1847Y166D02*
X1856Y166D01*
X1887Y166D02*
X1896Y166D01*
X1630Y165D02*
X1640Y165D01*
X1670Y165D02*
X1679Y165D01*
X1723Y165D02*
X1732Y165D01*
X1847Y165D02*
X1856Y165D01*
X1887Y165D02*
X1896Y165D01*
X1630Y164D02*
X1640Y164D01*
X1670Y164D02*
X1679Y164D01*
X1723Y164D02*
X1732Y164D01*
X1847Y164D02*
X1856Y164D01*
X1887Y164D02*
X1896Y164D01*
X1631Y163D02*
X1641Y163D01*
X1669Y163D02*
X1679Y163D01*
X1723Y163D02*
X1732Y163D01*
X1847Y163D02*
X1856Y163D01*
X1887Y163D02*
X1896Y163D01*
X1631Y162D02*
X1641Y162D01*
X1669Y162D02*
X1679Y162D01*
X1723Y162D02*
X1732Y162D01*
X1847Y162D02*
X1856Y162D01*
X1887Y162D02*
X1896Y162D01*
X1631Y161D02*
X1641Y161D01*
X1668Y161D02*
X1678Y161D01*
X1723Y161D02*
X1732Y161D01*
X1847Y161D02*
X1856Y161D01*
X1887Y161D02*
X1896Y161D01*
X1632Y160D02*
X1642Y160D01*
X1668Y160D02*
X1678Y160D01*
X1723Y160D02*
X1732Y160D01*
X1847Y160D02*
X1856Y160D01*
X1887Y160D02*
X1896Y160D01*
X1632Y159D02*
X1642Y159D01*
X1667Y159D02*
X1677Y159D01*
X1723Y159D02*
X1732Y159D01*
X1847Y159D02*
X1856Y159D01*
X1887Y159D02*
X1896Y159D01*
X1633Y158D02*
X1643Y158D01*
X1667Y158D02*
X1677Y158D01*
X1723Y158D02*
X1732Y158D01*
X1847Y158D02*
X1856Y158D01*
X1887Y158D02*
X1896Y158D01*
X1633Y157D02*
X1643Y157D01*
X1666Y157D02*
X1676Y157D01*
X1723Y157D02*
X1732Y157D01*
X1847Y157D02*
X1856Y157D01*
X1887Y157D02*
X1896Y157D01*
X1634Y156D02*
X1644Y156D01*
X1666Y156D02*
X1676Y156D01*
X1723Y156D02*
X1732Y156D01*
X1745Y156D02*
X1749Y156D01*
X1847Y156D02*
X1856Y156D01*
X1887Y156D02*
X1896Y156D01*
X1634Y155D02*
X1644Y155D01*
X1666Y155D02*
X1676Y155D01*
X1723Y155D02*
X1732Y155D01*
X1744Y155D02*
X1750Y155D01*
X1847Y155D02*
X1856Y155D01*
X1887Y155D02*
X1896Y155D01*
X1634Y154D02*
X1644Y154D01*
X1665Y154D02*
X1675Y154D01*
X1723Y154D02*
X1732Y154D01*
X1743Y154D02*
X1751Y154D01*
X1847Y154D02*
X1856Y154D01*
X1887Y154D02*
X1896Y154D01*
X1635Y153D02*
X1645Y153D01*
X1665Y153D02*
X1675Y153D01*
X1723Y153D02*
X1732Y153D01*
X1743Y153D02*
X1751Y153D01*
X1847Y153D02*
X1856Y153D01*
X1887Y153D02*
X1896Y153D01*
X1635Y152D02*
X1645Y152D01*
X1664Y152D02*
X1674Y152D01*
X1723Y152D02*
X1732Y152D01*
X1743Y152D02*
X1751Y152D01*
X1793Y152D02*
X1805Y152D01*
X1847Y152D02*
X1856Y152D01*
X1887Y152D02*
X1896Y152D01*
X1636Y151D02*
X1646Y151D01*
X1664Y151D02*
X1674Y151D01*
X1723Y151D02*
X1732Y151D01*
X1742Y151D02*
X1752Y151D01*
X1792Y151D02*
X1807Y151D01*
X1847Y151D02*
X1856Y151D01*
X1887Y151D02*
X1896Y151D01*
X1636Y150D02*
X1646Y150D01*
X1663Y150D02*
X1673Y150D01*
X1723Y150D02*
X1732Y150D01*
X1742Y150D02*
X1752Y150D01*
X1791Y150D02*
X1808Y150D01*
X1847Y150D02*
X1856Y150D01*
X1887Y150D02*
X1896Y150D01*
X1637Y149D02*
X1647Y149D01*
X1663Y149D02*
X1673Y149D01*
X1723Y149D02*
X1732Y149D01*
X1742Y149D02*
X1752Y149D01*
X1790Y149D02*
X1809Y149D01*
X1847Y149D02*
X1856Y149D01*
X1887Y149D02*
X1896Y149D01*
X1637Y148D02*
X1647Y148D01*
X1663Y148D02*
X1673Y148D01*
X1723Y148D02*
X1732Y148D01*
X1742Y148D02*
X1752Y148D01*
X1790Y148D02*
X1809Y148D01*
X1847Y148D02*
X1856Y148D01*
X1887Y148D02*
X1896Y148D01*
X1638Y147D02*
X1648Y147D01*
X1662Y147D02*
X1672Y147D01*
X1723Y147D02*
X1732Y147D01*
X1742Y147D02*
X1752Y147D01*
X1790Y147D02*
X1809Y147D01*
X1847Y147D02*
X1856Y147D01*
X1887Y147D02*
X1896Y147D01*
X1638Y146D02*
X1648Y146D01*
X1662Y146D02*
X1672Y146D01*
X1723Y146D02*
X1732Y146D01*
X1742Y146D02*
X1752Y146D01*
X1790Y146D02*
X1809Y146D01*
X1847Y146D02*
X1856Y146D01*
X1887Y146D02*
X1896Y146D01*
X1638Y145D02*
X1648Y145D01*
X1661Y145D02*
X1671Y145D01*
X1723Y145D02*
X1732Y145D01*
X1742Y145D02*
X1752Y145D01*
X1790Y145D02*
X1809Y145D01*
X1847Y145D02*
X1856Y145D01*
X1887Y145D02*
X1896Y145D01*
X1639Y144D02*
X1649Y144D01*
X1661Y144D02*
X1671Y144D01*
X1723Y144D02*
X1732Y144D01*
X1742Y144D02*
X1752Y144D01*
X1790Y144D02*
X1809Y144D01*
X1847Y144D02*
X1856Y144D01*
X1887Y144D02*
X1896Y144D01*
X1639Y143D02*
X1649Y143D01*
X1660Y143D02*
X1670Y143D01*
X1723Y143D02*
X1732Y143D01*
X1742Y143D02*
X1752Y143D01*
X1790Y143D02*
X1809Y143D01*
X1847Y143D02*
X1856Y143D01*
X1887Y143D02*
X1896Y143D01*
X1640Y142D02*
X1650Y142D01*
X1660Y142D02*
X1670Y142D01*
X1723Y142D02*
X1732Y142D01*
X1742Y142D02*
X1752Y142D01*
X1790Y142D02*
X1809Y142D01*
X1847Y142D02*
X1856Y142D01*
X1887Y142D02*
X1896Y142D01*
X1640Y141D02*
X1650Y141D01*
X1659Y141D02*
X1669Y141D01*
X1723Y141D02*
X1732Y141D01*
X1742Y141D02*
X1752Y141D01*
X1790Y141D02*
X1809Y141D01*
X1847Y141D02*
X1856Y141D01*
X1887Y141D02*
X1896Y141D01*
X1641Y140D02*
X1651Y140D01*
X1659Y140D02*
X1669Y140D01*
X1723Y140D02*
X1732Y140D01*
X1742Y140D02*
X1752Y140D01*
X1790Y140D02*
X1809Y140D01*
X1847Y140D02*
X1856Y140D01*
X1887Y140D02*
X1896Y140D01*
X1641Y139D02*
X1651Y139D01*
X1659Y139D02*
X1669Y139D01*
X1723Y139D02*
X1732Y139D01*
X1742Y139D02*
X1752Y139D01*
X1790Y139D02*
X1809Y139D01*
X1847Y139D02*
X1856Y139D01*
X1887Y139D02*
X1896Y139D01*
X1641Y138D02*
X1651Y138D01*
X1658Y138D02*
X1668Y138D01*
X1723Y138D02*
X1732Y138D01*
X1742Y138D02*
X1752Y138D01*
X1790Y138D02*
X1809Y138D01*
X1847Y138D02*
X1856Y138D01*
X1887Y138D02*
X1896Y138D01*
X1642Y137D02*
X1652Y137D01*
X1658Y137D02*
X1668Y137D01*
X1723Y137D02*
X1732Y137D01*
X1742Y137D02*
X1752Y137D01*
X1790Y137D02*
X1809Y137D01*
X1847Y137D02*
X1856Y137D01*
X1887Y137D02*
X1896Y137D01*
X1642Y136D02*
X1652Y136D01*
X1657Y136D02*
X1667Y136D01*
X1723Y136D02*
X1732Y136D01*
X1742Y136D02*
X1752Y136D01*
X1791Y136D02*
X1808Y136D01*
X1847Y136D02*
X1856Y136D01*
X1887Y136D02*
X1896Y136D01*
X1643Y135D02*
X1653Y135D01*
X1657Y135D02*
X1667Y135D01*
X1723Y135D02*
X1732Y135D01*
X1742Y135D02*
X1752Y135D01*
X1792Y135D02*
X1807Y135D01*
X1847Y135D02*
X1856Y135D01*
X1887Y135D02*
X1896Y135D01*
X1643Y134D02*
X1653Y134D01*
X1656Y134D02*
X1666Y134D01*
X1723Y134D02*
X1732Y134D01*
X1742Y134D02*
X1752Y134D01*
X1793Y134D02*
X1805Y134D01*
X1847Y134D02*
X1856Y134D01*
X1887Y134D02*
X1896Y134D01*
X1644Y133D02*
X1654Y133D01*
X1656Y133D02*
X1666Y133D01*
X1723Y133D02*
X1732Y133D01*
X1742Y133D02*
X1752Y133D01*
X1847Y133D02*
X1856Y133D01*
X1887Y133D02*
X1896Y133D01*
X1644Y132D02*
X1666Y132D01*
X1723Y132D02*
X1732Y132D01*
X1742Y132D02*
X1752Y132D01*
X1847Y132D02*
X1856Y132D01*
X1887Y132D02*
X1896Y132D01*
X1645Y131D02*
X1665Y131D01*
X1707Y131D02*
X1752Y131D01*
X1847Y131D02*
X1896Y131D01*
X1645Y130D02*
X1665Y130D01*
X1705Y130D02*
X1752Y130D01*
X1847Y130D02*
X1896Y130D01*
X1645Y129D02*
X1664Y129D01*
X1704Y129D02*
X1752Y129D01*
X1848Y129D02*
X1896Y129D01*
X1646Y128D02*
X1664Y128D01*
X1703Y128D02*
X1752Y128D01*
X1848Y128D02*
X1896Y128D01*
X1646Y127D02*
X1663Y127D01*
X1703Y127D02*
X1752Y127D01*
X1848Y127D02*
X1895Y127D01*
X1647Y126D02*
X1663Y126D01*
X1703Y126D02*
X1752Y126D01*
X1849Y126D02*
X1895Y126D01*
X1647Y125D02*
X1662Y125D01*
X1703Y125D02*
X1751Y125D01*
X1850Y125D02*
X1894Y125D01*
X1648Y124D02*
X1662Y124D01*
X1703Y124D02*
X1751Y124D01*
X1850Y124D02*
X1893Y124D01*
X1648Y123D02*
X1661Y123D01*
X1704Y123D02*
X1750Y123D01*
X1852Y123D02*
X1892Y123D01*
X1649Y122D02*
X1660Y122D01*
X1705Y122D02*
X1749Y122D01*
X1853Y122D02*
X1890Y122D01*
D02*
G04 End of Copper1*
M02*