G04 MADE WITH FRITZING*
G04 WWW.FRITZING.ORG*
G04 DOUBLE SIDED*
G04 HOLES PLATED*
G04 CONTOUR ON CENTER OF CONTOUR VECTOR*
%ASAXBY*%
%FSLAX23Y23*%
%MOIN*%
%OFA0B0*%
%SFA1.0B1.0*%
%ADD10C,0.039370*%
%ADD11C,0.079391*%
%ADD12C,0.082000*%
%ADD13C,0.074000*%
%ADD14C,0.078000*%
%ADD15C,0.075000*%
%ADD16C,0.080000*%
%ADD17R,0.082000X0.082000*%
%ADD18R,0.080000X0.080000*%
%ADD19C,0.024000*%
%ADD20C,0.032000*%
%LNCOPPER0*%
G90*
G70*
G54D10*
X422Y647D03*
X722Y647D03*
X722Y2147D03*
X922Y2147D03*
X922Y1947D03*
X1322Y2147D03*
X1122Y1947D03*
X1122Y1747D03*
X1422Y1947D03*
X2022Y2147D03*
X1622Y2047D03*
X1722Y1847D03*
X1822Y1947D03*
X1822Y1247D03*
X1822Y647D03*
X1822Y1047D03*
X1622Y1147D03*
X1622Y847D03*
X822Y447D03*
X622Y247D03*
X922Y447D03*
X722Y247D03*
X1122Y2047D03*
X1122Y2247D03*
G54D11*
X1122Y1447D03*
X1022Y1447D03*
X922Y1447D03*
X822Y1447D03*
X722Y1447D03*
X622Y1447D03*
X522Y1447D03*
X422Y1447D03*
X422Y547D03*
X522Y547D03*
X622Y547D03*
X722Y547D03*
X822Y547D03*
X922Y547D03*
X1022Y547D03*
X1122Y547D03*
G54D12*
X1122Y347D03*
X1222Y347D03*
X1322Y347D03*
G54D13*
X1822Y2047D03*
X1929Y2047D03*
X2036Y2047D03*
G54D14*
X722Y2047D03*
X622Y2047D03*
X522Y2047D03*
X422Y2047D03*
X322Y2047D03*
X222Y2047D03*
X822Y2047D03*
X922Y2047D03*
X1022Y2047D03*
X1322Y2047D03*
X1422Y2047D03*
X1522Y2047D03*
X422Y147D03*
X522Y147D03*
X622Y147D03*
X722Y147D03*
G54D15*
X1122Y1847D03*
X1522Y1847D03*
X1422Y147D03*
X1022Y147D03*
X822Y1047D03*
X422Y1047D03*
G54D16*
X1722Y1647D03*
X1722Y1447D03*
X1722Y1247D03*
X1722Y1047D03*
X1722Y847D03*
X1722Y647D03*
G54D17*
X1122Y347D03*
G54D18*
X1722Y1647D03*
X1722Y1247D03*
X1722Y847D03*
G54D19*
X522Y178D02*
X522Y517D01*
D02*
X422Y628D02*
X422Y578D01*
D02*
X1722Y547D02*
X1351Y362D01*
D02*
X1722Y616D02*
X1722Y547D01*
D02*
X1409Y173D02*
X1337Y319D01*
D02*
X622Y46D02*
X543Y126D01*
D02*
X1322Y46D02*
X622Y46D01*
D02*
X1402Y127D02*
X1322Y46D01*
D02*
X722Y628D02*
X722Y578D01*
D02*
X722Y2077D02*
X722Y2128D01*
D02*
X844Y2069D02*
X909Y2134D01*
D02*
X722Y1847D02*
X822Y1947D01*
D02*
X822Y1947D02*
X822Y2017D01*
D02*
X622Y1947D02*
X722Y1847D01*
D02*
X622Y2017D02*
X622Y1947D01*
D02*
X922Y2017D02*
X922Y1966D01*
D02*
X1052Y2047D02*
X1103Y2047D01*
D02*
X1322Y2128D02*
X1322Y2077D01*
D02*
X1122Y1928D02*
X1122Y1876D01*
D02*
X1122Y1766D02*
X1122Y1819D01*
D02*
X1422Y2017D02*
X1422Y1966D01*
D02*
X2032Y2078D02*
X2025Y2129D01*
G54D20*
D02*
X1722Y2147D02*
X1822Y2147D01*
D02*
X1822Y2147D02*
X1902Y2072D01*
D02*
X1640Y2065D02*
X1722Y2147D01*
D02*
X1722Y1684D02*
X1722Y1823D01*
D02*
X1822Y1972D02*
X1822Y2011D01*
D02*
X1759Y1247D02*
X1798Y1247D01*
G54D19*
D02*
X1753Y1047D02*
X1803Y1047D01*
D02*
X1753Y647D02*
X1803Y647D01*
D02*
X1636Y1134D02*
X1700Y1069D01*
D02*
X1691Y847D02*
X1641Y847D01*
D02*
X622Y178D02*
X622Y228D01*
D02*
X822Y466D02*
X822Y517D01*
D02*
X722Y178D02*
X722Y228D01*
D02*
X922Y466D02*
X922Y517D01*
G54D20*
D02*
X1822Y747D02*
X1622Y747D01*
D02*
X1475Y575D02*
X1222Y447D01*
D02*
X1222Y447D02*
X1222Y385D01*
D02*
X1622Y747D02*
X1475Y575D01*
D02*
X1917Y1377D02*
X1919Y821D01*
D02*
X1919Y821D02*
X1822Y747D01*
D02*
X1822Y1448D02*
X1917Y1377D01*
D02*
X1759Y1447D02*
X1822Y1448D01*
G54D19*
D02*
X1522Y1747D02*
X1522Y1819D01*
D02*
X922Y1547D02*
X1522Y1747D01*
D02*
X922Y1478D02*
X922Y1547D01*
D02*
X1522Y1876D02*
X1522Y2017D01*
D02*
X1122Y2228D02*
X1122Y2066D01*
D02*
X1035Y173D02*
X1108Y319D01*
D02*
X922Y347D02*
X721Y347D01*
D02*
X721Y347D02*
X623Y448D01*
D02*
X623Y448D02*
X622Y517D01*
D02*
X1009Y173D02*
X922Y347D01*
D02*
X222Y1947D02*
X522Y1547D01*
D02*
X522Y1547D02*
X522Y1478D01*
D02*
X222Y2017D02*
X222Y1947D01*
D02*
X322Y1947D02*
X322Y2017D01*
D02*
X622Y1547D02*
X322Y1947D01*
D02*
X622Y1478D02*
X622Y1547D01*
D02*
X422Y1947D02*
X722Y1547D01*
D02*
X722Y1547D02*
X722Y1478D01*
D02*
X422Y2017D02*
X422Y1947D01*
D02*
X522Y1947D02*
X822Y1547D01*
D02*
X822Y1547D02*
X822Y1478D01*
D02*
X522Y2017D02*
X522Y1947D01*
D02*
X424Y249D02*
X423Y178D01*
D02*
X122Y348D02*
X424Y249D01*
D02*
X122Y1548D02*
X122Y348D01*
D02*
X223Y1649D02*
X122Y1548D01*
D02*
X323Y1649D02*
X223Y1649D01*
D02*
X424Y1548D02*
X323Y1649D01*
D02*
X423Y1478D02*
X424Y1548D01*
G04 End of Copper0*
M02*